HIERARCHY
ROOT Hips
{
	OFFSET 0.000000 0.000000 0.000000
	CHANNELS 6 Xposition Yposition Zposition Zrotation Yrotation Xrotation 
	JOINT LHipJoint
	{
		OFFSET 0.000000 0.000000 0.000000
		CHANNELS 3 Zrotation Yrotation Xrotation
		JOINT LeftUpLeg
		{
			OFFSET 1.363060 -1.794630 0.839290
			CHANNELS 3 Zrotation Yrotation Xrotation
			JOINT LeftLeg
			{
				OFFSET 2.448110 -6.726130 0.000000
				CHANNELS 3 Zrotation Yrotation Xrotation
				JOINT LeftFoot
				{
					OFFSET 2.562200 -7.039590 0.000000
					CHANNELS 3 Zrotation Yrotation Xrotation
					JOINT LeftToeBase
					{
						OFFSET 0.157640 -0.433110 2.322550
						CHANNELS 3 Zrotation Yrotation Xrotation
						End Site
						{
							OFFSET 0.000000 0.000000 0.000000
						}
					}
				}
			}
		}
	}
	JOINT RHipJoint
	{
		OFFSET 0.000000 0.000000 0.000000
		CHANNELS 3 Zrotation Yrotation Xrotation
		JOINT RightUpLeg
		{
			OFFSET -1.305520 -1.794630 0.839290
			CHANNELS 3 Zrotation Yrotation Xrotation
			JOINT RightLeg
			{
				OFFSET -2.542530 -6.985550 0.000000
				CHANNELS 3 Zrotation Yrotation Xrotation
				JOINT RightFoot
				{
					OFFSET -2.568260 -7.056230 0.000000
					CHANNELS 3 Zrotation Yrotation Xrotation
					JOINT RightToeBase
					{
						OFFSET -0.164730 -0.452590 2.363150
						CHANNELS 3 Zrotation Yrotation Xrotation
						End Site
						{
							OFFSET 0.000000 0.000000 0.000000
						}
					}
				}
			}
		}
	}
	JOINT LowerBack
	{
		OFFSET 0.000000 0.000000 0.000000
		CHANNELS 3 Zrotation Yrotation Xrotation
		JOINT Spine
		{
			OFFSET 0.028270 2.035590 -0.193380
			CHANNELS 3 Zrotation Yrotation Xrotation
			JOINT Spine1
			{
				OFFSET 0.056720 2.048850 -0.042750
				CHANNELS 3 Zrotation Yrotation Xrotation
				JOINT Neck
				{
					OFFSET 0.000000 0.000000 0.000000
					CHANNELS 3 Zrotation Yrotation Xrotation
					JOINT Neck1
					{
						OFFSET -0.054170 1.746240 0.172020
						CHANNELS 3 Zrotation Yrotation Xrotation
						JOINT Head
						{
							OFFSET 0.104070 1.761360 -0.123970
							CHANNELS 3 Zrotation Yrotation Xrotation
							End Site
							{
								OFFSET 0.000000 0.000000 0.000000
							}
						}
					}
				}
				JOINT LeftShoulder
				{
					OFFSET 0.000000 0.000000 0.000000
					CHANNELS 3 Zrotation Yrotation Xrotation
					JOINT LeftArm
					{
						OFFSET 3.362410 1.200890 -0.311210
						CHANNELS 3 Zrotation Yrotation Xrotation
						JOINT LeftForeArm
						{
							OFFSET 4.983000 -0.000000 -0.000000
							CHANNELS 3 Zrotation Yrotation Xrotation
							JOINT LeftHand
							{
								OFFSET 3.483560 -0.000000 -0.000000
								CHANNELS 3 Zrotation Yrotation Xrotation
								JOINT LeftFingerBase
								{
									OFFSET 0.000000 0.000000 0.000000
									CHANNELS 3 Zrotation Yrotation Xrotation
									JOINT LeftHandIndex1
									{
										OFFSET 0.715260 -0.000000 -0.000000
										CHANNELS 3 Zrotation Yrotation Xrotation
										End Site
										{
											OFFSET 0.000000 0.000000 0.000000
										}
									}
								}
								JOINT LThumb
								{
									OFFSET 0.000000 0.000000 0.000000
									CHANNELS 3 Zrotation Yrotation Xrotation
									End Site
									{
										OFFSET 0.000000 0.000000 0.000000
									}
								}
							}
						}
					}
				}
				JOINT RightShoulder
				{
					OFFSET 0.000000 0.000000 0.000000
					CHANNELS 3 Zrotation Yrotation Xrotation
					JOINT RightArm
					{
						OFFSET -3.136600 1.374050 -0.404650
						CHANNELS 3 Zrotation Yrotation Xrotation
						JOINT RightForeArm
						{
							OFFSET -5.241900 -0.000000 -0.000000
							CHANNELS 3 Zrotation Yrotation Xrotation
							JOINT RightHand
							{
								OFFSET -3.444170 -0.000000 -0.000000
								CHANNELS 3 Zrotation Yrotation Xrotation
								JOINT RightFingerBase
								{
									OFFSET 0.000000 0.000000 0.000000
									CHANNELS 3 Zrotation Yrotation Xrotation
									JOINT RightHandIndex1
									{
										OFFSET -0.622530 -0.000000 -0.000000
										CHANNELS 3 Zrotation Yrotation Xrotation
										End Site
										{
											OFFSET 0.000000 0.000000 0.000000
										}
									}
								}
								JOINT RThumb
								{
									OFFSET 0.000000 0.000000 0.000000
									CHANNELS 3 Zrotation Yrotation Xrotation
									End Site
									{
										OFFSET 0.000000 0.000000 0.000000
									}
								}
							}
						}
					}
				}
			}
		}
	}
}
MOTION
Frames: 6
Frame Time: 0.008333
-0.373275 17.577840 -12.888867 7.931542 6.434902 10.687874 -6.188116 -1.508965 2.785063 -23.183470 3.652627 3.240030 -1.216742 3.010330 6.474304 -3.380711 15.638533 -0.201852 0.911200 -6.082700 -17.024600 3.359392 2.688056 -2.712968 5.222299 -0.902884 -44.676475 -2.493941 -10.642128 29.485831 4.507695 -18.303462 0.005012 -0.174100 2.688100 -7.411600 -8.996493 -1.066716 10.653017 0.219275 -2.485196 -1.446494 4.996028 -1.021602 -5.056919 2.154738 -0.118248 -18.583492 2.721970 -0.984674 9.777276 -2.348000 -0.293900 8.398500 3.441953 -1.308933 0.038384 -87.445187 -14.454799 34.757070 24.699800 -35.804045 -7.538237 0.273965 0.375009 -16.219469 18.312473 -3.307830 -1.169600 -7.125000 0.000000 0.000000 -6.576800 26.171800 3.020400 -2.934263 1.480286 0.277541 87.486990 -13.958510 -2.149031 -8.022914 14.454367 -1.152636 -0.065094 -0.436286 8.487136 -17.886581 -4.609964 1.336800 7.125000 0.000000 0.000000 7.202000 -34.267500 1.909400 
-0.375170 17.575547 -12.624564 7.868630 6.901184 10.788335 -6.119628 -1.358690 2.914116 -22.927734 3.905603 5.587491 -1.274751 1.939235 3.530228 -3.292154 15.826032 1.671859 1.024400 -6.438500 -18.062200 3.354116 2.671945 -2.761083 5.262656 -0.684538 -44.528019 -2.095659 -10.068595 27.552552 4.456936 -18.139571 0.219511 -0.262100 3.293900 -9.098000 -8.944898 -1.291293 10.464047 0.284517 -2.749990 -1.455683 5.035357 -1.177808 -4.928792 2.142087 -0.091623 -18.688703 2.763669 -0.940847 9.813233 -2.328100 -0.268700 8.430100 3.423049 -1.322929 0.041680 -87.116804 -15.042812 34.885497 25.816001 -36.947911 -8.166652 0.273972 0.373188 -16.422478 18.593362 -3.573444 -1.275800 -7.125000 0.000000 0.000000 -6.353900 25.890700 2.958800 -2.927792 1.474277 0.279447 87.708293 -14.466685 -3.942535 -7.625851 13.842717 -1.064560 -0.085120 -0.420028 10.464093 -17.912587 -4.129188 1.187700 7.125000 0.000000 0.000000 7.137100 -33.781200 1.976700 
-0.377961 17.573453 -12.356671 7.790704 7.391514 10.844700 -6.031044 -1.212763 3.017813 -22.614579 4.132547 7.889983 -1.273839 0.943974 0.809579 -3.145386 15.901623 3.601868 1.157300 -6.830000 -19.212700 3.344467 2.648466 -2.787846 5.220979 -0.350946 -44.233624 -1.782951 -9.603357 26.022992 4.380566 -17.851645 0.062525 -0.352200 3.813200 -10.551700 -8.879454 -1.518069 10.306169 0.366412 -3.018341 -1.459662 5.085904 -1.334049 -4.808967 2.168532 -0.038723 -18.757309 2.727975 -0.871364 9.826592 -2.339300 -0.238400 8.447700 3.406421 -1.342544 0.046204 -86.808832 -15.555416 34.966571 26.938413 -38.057065 -8.817706 0.275093 0.371321 -16.593725 18.919534 -3.837784 -1.387900 -7.125000 0.000000 0.000000 -6.099100 25.608700 2.879200 -2.918440 1.463900 0.281325 87.902584 -14.963771 -5.654675 -7.298414 13.330210 -0.994324 -0.098515 -0.407213 12.125513 -17.844508 -3.916567 1.117700 7.125000 0.000000 0.000000 7.174200 -33.568000 2.024500 
-0.381750 17.571659 -12.084591 7.669208 7.862460 10.840904 -5.989674 -1.153510 3.066258 -22.180107 4.046552 8.835314 -1.259364 0.949670 0.804978 -3.079101 15.859469 4.350352 1.314700 -7.262700 -20.495900 3.359141 2.642622 -2.789162 5.143623 0.061149 -43.812675 -1.555416 -9.254202 24.918954 4.282961 -17.460125 -0.366555 -0.431200 4.213900 -11.679300 -8.779367 -1.727909 10.183759 0.459116 -3.266524 -1.454449 5.138143 -1.473097 -4.692542 2.195773 0.020942 -18.814174 2.652128 -0.791681 9.839403 -2.363500 -0.207600 8.463500 3.391820 -1.357344 0.050175 -86.521163 -16.023473 35.034083 28.036916 -39.103138 -9.472825 0.278260 0.368435 -16.769338 19.305378 -4.171053 -1.531500 -7.125000 0.000000 0.000000 -5.800400 25.252600 2.785100 -2.908059 1.458694 0.284475 88.088319 -15.431629 -7.393804 -7.007279 12.868415 -0.933724 -0.109184 -0.395725 13.645297 -17.742428 -3.799935 1.076500 7.125000 0.000000 0.000000 7.247800 -33.452600 2.065900 
-0.386535 17.570163 -11.807027 7.525230 8.321085 10.784552 -5.942270 -1.088648 3.113769 -21.690053 3.985264 9.821938 -1.242975 0.954803 0.799992 -2.966048 15.709339 5.310240 1.492900 -7.718700 -21.862800 3.373608 2.628666 -2.775795 5.098180 0.479648 -43.289305 -1.402417 -9.035647 24.229679 4.152852 -16.965465 -0.846622 -0.493500 4.504000 -12.499000 -8.657366 -1.917183 10.085689 0.560609 -3.486614 -1.438668 5.186384 -1.598550 -4.584394 2.235893 0.083659 -18.898811 2.521748 -0.707261 9.871827 -2.409200 -0.178600 8.491600 3.379344 -1.373846 0.054173 -86.261680 -16.439502 35.100675 29.096109 -40.075375 -10.120355 0.283065 0.363808 -16.919464 19.715443 -4.593802 -1.712900 -7.125000 0.000000 0.000000 -5.484700 24.801100 2.689900 -2.897005 1.452907 0.287683 88.270561 -15.883076 -9.190420 -6.735874 12.432181 -0.879143 -0.119844 -0.384435 15.153563 -17.681111 -3.681726 1.037500 7.125000 0.000000 0.000000 7.288100 -33.336300 2.098200 
-0.392119 17.569166 -11.523581 7.339162 8.749803 10.676811 -5.889287 -1.018667 3.160374 -21.128244 3.963446 10.831403 -1.224609 0.959097 0.794974 -2.802970 15.456491 6.508588 1.700900 -8.213100 -23.363300 3.388891 2.607532 -2.748340 5.179043 0.818110 -42.705447 -1.313628 -8.942117 23.927729 3.973528 -16.323845 -1.222523 -0.535900 4.690500 -13.027900 -8.500975 -2.083303 9.993464 0.673781 -3.671456 -1.407314 5.226523 -1.708473 -4.470509 2.247023 0.127331 -18.980597 2.388330 -0.640186 9.907522 -2.453000 -0.159800 8.519800 3.368526 -1.390211 0.057699 -86.034033 -16.822008 35.161312 30.091671 -40.957829 -10.742846 0.289368 0.358031 -17.076953 20.153006 -5.088829 -1.929100 -7.125000 0.000000 0.000000 -5.151600 24.270900 2.588700 -2.886140 1.447122 0.290993 88.448274 -16.314276 -11.014957 -6.484184 12.022461 -0.830188 -0.130478 -0.373376 16.643707 -17.662140 -3.564474 1.001400 7.125000 0.000000 0.000000 7.294700 -33.221600 2.120500 
